<svg width="1600" height="1800" viewBox="0 0 1600 1800" fill="none" xmlns="http://www.w3.org/2000/svg">
  <rect width="1600" height="1800" fill="#E9E0D2"/>
  <rect width="1600" height="1800" fill="url(#paint0_radial_1_2)"/>
  <circle cx="1227" cy="264" r="248" fill="#FFF8EC" fill-opacity="0.78"/>
  <circle cx="363" cy="310" r="182" fill="#CFAE7A" fill-opacity="0.18"/>
  <path d="M928 307C928 273.863 954.863 247 988 247H1136C1169.14 247 1196 273.863 1196 307V1428H928V307Z" fill="#302924"/>
  <path d="M972 223C972 187.654 1000.65 159 1036 159H1088C1123.35 159 1152 187.654 1152 223V247H972V223Z" fill="#302924"/>
  <path d="M960 372H1165V1447H960V372Z" fill="#1E1916"/>
  <path d="M989 410H1132V582C1132 682.516 1050.52 764 950 764C1049.48 764 1131 845.516 1131 946V1468H989V410Z" fill="url(#paint1_linear_1_2)"/>
  <path d="M1168 857C1168 795.696 1217.7 746 1279 746H1294C1355.3 746 1405 795.696 1405 857V1404H1168V857Z" fill="#F5EBDD"/>
  <path d="M1286 768C1312.51 768 1334 746.51 1334 720C1334 693.49 1312.51 672 1286 672C1259.49 672 1238 693.49 1238 720C1238 746.51 1259.49 768 1286 768Z" fill="#B58A44"/>
  <path d="M210 1110C210 1006.17 294.172 922 398 922H613C716.828 922 801 1006.17 801 1110V1427H210V1110Z" fill="#B58A44"/>
  <path d="M247 1129C247 1045.05 315.046 977 399 977H613C696.954 977 765 1045.05 765 1129V1477H247V1129Z" fill="#D9BC8D"/>
  <path d="M322 815C322 768.056 360.056 730 407 730H523C569.944 730 608 768.056 608 815V922H322V815Z" fill="#F4E7D3"/>
  <path d="M370 781C370 750.072 395.072 725 426 725H504C534.928 725 560 750.072 560 781V802H370V781Z" fill="#B58A44"/>
  <path d="M434 797C434 763.863 460.863 737 494 737H504C537.137 737 564 763.863 564 797V806H434V797Z" fill="#6B584A"/>
  <path d="M192 1498H1427" stroke="#D2C4B2" stroke-width="2"/>
  <path d="M312 560C404.109 474.137 558.938 464.45 661 547.786" stroke="#B58A44" stroke-opacity="0.4" stroke-width="3" stroke-linecap="round" stroke-dasharray="10 18"/>
  <path d="M290 603C382.109 517.137 536.938 507.45 639 590.786" stroke="#FFF8EC" stroke-opacity="0.6" stroke-width="3" stroke-linecap="round" stroke-dasharray="10 18"/>
  <defs>
    <radialGradient id="paint0_radial_1_2" cx="0" cy="0" r="1" gradientUnits="userSpaceOnUse" gradientTransform="translate(800 900) rotate(90) scale(900 800)">
      <stop stop-color="#F8F3EA"/>
      <stop offset="1" stop-color="#E9E0D2"/>
    </radialGradient>
    <linearGradient id="paint1_linear_1_2" x1="1061" y1="410" x2="1061" y2="1468" gradientUnits="userSpaceOnUse">
      <stop stop-color="#2E2823"/>
      <stop offset="1" stop-color="#5B4A3E"/>
    </linearGradient>
  </defs>
</svg>
