<svg width="1400" height="1000" viewBox="0 0 1400 1000" fill="none" xmlns="http://www.w3.org/2000/svg">
  <rect width="1400" height="1000" rx="40" fill="#F8F3EA"/>
  <rect width="1400" height="1000" rx="40" fill="url(#bg)"/>
  <circle cx="1130" cy="170" r="150" fill="#FFF8EC"/>
  <circle cx="220" cy="810" r="170" fill="#D7BC8E" fill-opacity="0.2"/>
  <rect x="145" y="165" width="1110" height="670" rx="40" fill="#FFFDF8" stroke="#E1D5C6" stroke-width="3"/>
  <rect x="210" y="635" width="255" height="120" rx="28" fill="#1D1815"/>
  <rect x="242" y="666" width="190" height="58" rx="16" fill="#2D241E"/>
  <circle cx="290" cy="755" r="20" fill="#B88C46"/>
  <circle cx="385" cy="755" r="20" fill="#B88C46"/>
  <path d="M307 522C307 472.847 346.847 433 396 433H574C623.153 433 663 472.847 663 522V640H307V522Z" fill="#E8D3B2"/>
  <path d="M385 381C385 342.34 416.34 311 455 311H515C553.66 311 585 342.34 585 381V433H385V381Z" fill="#C49A5A"/>
  <path d="M448 241C448 228.85 457.85 219 470 219H500C512.15 219 522 228.85 522 241V311H448V241Z" fill="#1D1815"/>
  <path d="M738 468C738 421.608 775.608 384 822 384H1014C1060.39 384 1098 421.608 1098 468V635H738V468Z" fill="#F0E1C7"/>
  <path d="M812 336C812 305.072 837.072 280 868 280H968C998.928 280 1024 305.072 1024 336V384H812V336Z" fill="#B88C46"/>
  <path d="M807 488H1029" stroke="#B88C46" stroke-width="9" stroke-linecap="round" stroke-dasharray="18 18"/>
  <path d="M664 537C708.797 529.506 748.924 554.848 760.5 599.5" stroke="#B88C46" stroke-width="8" stroke-linecap="round" stroke-dasharray="15 18"/>
  <circle cx="699" cy="523" r="17" fill="#B88C46"/>
  <circle cx="772" cy="607" r="17" fill="#B88C46"/>
  <path d="M469 528L503 562L565 480" stroke="#FFFDF8" stroke-width="12" stroke-linecap="round" stroke-linejoin="round"/>
  <path d="M874 524L908 558L970 476" stroke="#FFFDF8" stroke-width="12" stroke-linecap="round" stroke-linejoin="round"/>
  <rect x="960" y="653" width="178" height="92" rx="24" fill="#FFF8EC" stroke="#E1D5C6" stroke-width="2"/>
  <text x="1049" y="709" text-anchor="middle" fill="#B88C46" font-family="Georgia, serif" font-size="30" font-weight="700">Ready</text>
  <defs>
    <radialGradient id="bg" cx="0" cy="0" r="1" gradientUnits="userSpaceOnUse" gradientTransform="translate(700 500) rotate(90) scale(590 710)">
      <stop stop-color="#FFFDF8"/>
      <stop offset="1" stop-color="#EFE6D7"/>
    </radialGradient>
  </defs>
</svg>
